<?xml version="1.0" encoding="UTF-8"?>
<svg xmlns="http://www.w3.org/2000/svg" xmlns:xlink="http://www.w3.org/1999/xlink" width="200px" height="200px" viewBox="0 0 200 200" version="1.1">
  <title>编组 9备份</title>
  <defs>
    <filter color-interpolation-filters="auto" id="filter-1">
      <feColorMatrix in="SourceGraphic" type="matrix" values="0 0 0 0 0.200000 0 0 0 0 0.200000 0 0 0 0 0.200000 0 0 0 1.000000 0"></feColorMatrix>
    </filter>
  </defs>
  <g id="页面-1" stroke="none" stroke-width="1" fill="none" fill-rule="evenodd">
    <g id="pc端icon" transform="translate(-1387.000000, -1846.000000)">
      <g id="编组-9备份" transform="translate(1387.000000, 1846.000000)">
        <path d="M100,0 C155.228475,0 200,44.771525 200,100 C200,155.228475 155.228475,200 100,200 C44.771525,200 0,155.228475 0,100 C0,44.771525 44.771525,0 100,0 Z M99,105 C98.0328531,105 97.0657061,105.369879 96.3302715,106.114704 L96.3302715,106.114704 L66.1069299,136.515717 C64.6310234,138.0003 64.6310234,140.40198 66.1069299,141.886563 C67.5828364,143.371146 69.9704804,143.371146 71.4463869,141.886563 L71.4463869,141.886563 L99,114.176039 L126.553613,141.886563 C128.02952,143.371146 130.417164,143.371146 131.89307,141.886563 C133.368977,140.40198 133.368977,138.0003 131.89307,136.515717 L131.89307,136.515717 L101.669729,106.114704 C100.934294,105.369879 99.9671469,105 99,105 Z M71.4463869,58.1134371 C69.9704804,56.6288543 67.5828364,56.6288543 66.1069299,58.1134371 C64.6310234,59.5980199 64.6310234,61.9997 66.1069299,63.4842828 L66.1069299,63.4842828 L96.3302715,93.8852962 C97.0657061,94.630121 98.0328531,95 99,95 C99.9671469,95 100.934294,94.630121 101.669729,93.8852962 L101.669729,93.8852962 L131.89307,63.4842828 C133.368977,61.9997 133.368977,59.5980199 131.89307,58.1134371 C130.417164,56.6288543 128.02952,56.6288543 126.553613,58.1134371 L126.553613,58.1134371 L99,85.8239608 Z" id="形状结合" fill="#666666"></path>
        <g filter="url(#filter-1)" id="编组-3">
          <g transform="translate(65.000000, 57.000000)"></g>
        </g>
      </g>
    </g>
  </g>
</svg>
