<?xml version="1.0" standalone="no"?><!DOCTYPE svg PUBLIC "-//W3C//DTD SVG 1.1//EN" "http://www.w3.org/Graphics/SVG/1.1/DTD/svg11.dtd"><svg t="1650622898901" class="icon" viewBox="0 0 1024 1024" version="1.1" xmlns="http://www.w3.org/2000/svg" p-id="2034" xmlns:xlink="http://www.w3.org/1999/xlink" width="200" height="200"><defs><style type="text/css"></style></defs><path d="M507.922124 562.411611c8.201062 0 17.761416 2.727646 24.585062 9.551292l274.432 275.800354a34.616637 34.616637 0 0 1 0 49.152c-13.656354 13.656354-35.504708 13.656354-47.792708 0L507.931186 644.331611 258.075186 895.546903c-13.656354 13.656354-35.504708 13.656354-47.792708 0a34.616637 34.616637 0 0 1 0-49.152L484.72354 570.603611c5.464354-5.464354 13.656354-8.192 23.216708-8.192M507.922124 470.931257c-8.182938 0-17.743292-2.727646-24.566938-9.560354L208.923186 185.588673a34.616637 34.616637 0 0 1 0-49.152c13.647292-13.656354 35.495646-13.656354 47.783646 0L506.562832 387.642903l251.224354-251.215292c13.647292-13.656354 35.495646-13.656354 47.783646 0 12.288 13.647292 13.656354 35.495646 0 49.152L531.138832 461.370903c-5.464354 6.832708-15.015646 9.560354-23.207646 9.560354" p-id="2035"></path></svg>