<?xml version="1.0" standalone="no"?><!DOCTYPE svg PUBLIC "-//W3C//DTD SVG 1.1//EN" "http://www.w3.org/Graphics/SVG/1.1/DTD/svg11.dtd"><svg t="1650622908655" class="icon" viewBox="0 0 1024 1024" version="1.1" xmlns="http://www.w3.org/2000/svg" p-id="2184" xmlns:xlink="http://www.w3.org/1999/xlink" width="200" height="200"><defs><style type="text/css"></style></defs><path d="M489.345133 398.725664c11.780531 0 23.561062 4.530973 31.716814 13.59292l362.477876 362.477876c18.123894 18.123894 18.123894 46.215929 0 64.339823s-46.215929 18.123894-64.339823 0L489.345133 508.375221 158.584071 838.230088c-18.123894 18.123894-46.215929 18.123894-64.339823 0s-18.123894-46.215929 0-64.339823l362.477876-362.477876c9.061947-8.155752 20.842478-12.686726 32.623009-12.686725" p-id="2185"></path><path d="M897.132743 167.646018c22.654867 0 40.778761 18.123894 40.778761 40.778761 0 21.748673-17.217699 39.872566-38.966371 40.778761H81.557522c-22.654867 0-40.778761-18.123894-40.778761-40.778761 0-21.748673 17.217699-39.872566 38.966372-40.778761H897.132743z" p-id="2186"></path></svg>