<?xml version="1.0" encoding="UTF-8"?>
<svg xmlns="http://www.w3.org/2000/svg" xmlns:xlink="http://www.w3.org/1999/xlink" width="200px" height="200px" viewBox="0 0 200 200" version="1.1">
  <title>编组 8备份</title>
  <g id="页面-1" stroke="none" stroke-width="1" fill="none" fill-rule="evenodd">
    <g id="pc端icon" transform="translate(-1979.000000, -1846.000000)" fill="#666666">
      <g id="编组-8备份" transform="translate(1979.000000, 1846.000000)">
        <path d="M100,0 C155.228475,0 200,44.771525 200,100 C200,155.228475 155.228475,200 100,200 C44.771525,200 0,155.228475 0,100 C0,44.771525 44.771525,0 100,0 Z M100.5,87.5 C99.2199526,87.5 97.9399052,87.9866829 96.9665358,88.9667156 L96.9665358,88.9667156 L56.9650543,128.968049 C55.0116486,130.921447 55.0116486,134.081553 56.9650543,136.034951 C58.9184599,137.98835 62.078577,137.98835 64.0319827,136.034951 L64.0319827,136.034951 L100.5,99.5737358 L136.968017,136.034951 C138.921423,137.98835 142.08154,137.98835 144.034946,136.034951 C145.988351,134.081553 145.988351,130.921447 144.034946,128.968049 L144.034946,128.968049 L104.033464,88.9667156 C103.060095,87.9866829 101.780047,87.5 100.5,87.5 Z M145.5,62 L55.5,62 L55.2881643,62.004898 C52.9012365,62.1155109 51,64.0857267 51,66.5 C51,68.9852814 53.0147186,71 55.5,71 L55.5,71 L145.5,71 L145.711836,70.995102 C148.098763,70.8844891 150,68.9142733 150,66.5 C150,64.0147186 147.985281,62 145.5,62 L145.5,62 Z" id="形状结合"></path>
      </g>
    </g>
  </g>
</svg>
